<svg xmlns="http://www.w3.org/2000/svg" viewBox="0 0 116.61584 132.08651">
  <defs>
    <style>
      .body {
        fill: #361303;
      }

      .eye {
        fill: #db4a01;
      }

      .glow {
        opacity: 0.6;
        fill: url(#a);
      }

      .text {
        fill: #db4a01;
      }

      .cursor {
        animation: cursor 1s linear infinite;
      }

      @media (prefers-color-scheme: dark) {
        .body {
          fill: #fcd3d3;
        }

        .glow {
          opacity: 0.6;
        }
      }

      @keyframes cursor {
        0% {
          opacity: 1;
        }

        49.99% {
          opacity: 1;
        }

        50% {
          opacity: 0;
        }

        99.99% {
          opacity: 0;
        }

        100% {
          opacity: 1;
        }
      }
    </style>
    <radialGradient id="a" cx="46.16348" cy="42.7785" r="29.64006"
      gradientTransform="translate(-5.01797) scale(1.32593 1)" gradientUnits="userSpaceOnUse">
      <stop offset="0" stop-color="#db4a01" stop-opacity="0.5" />
      <stop offset="0.16457" stop-color="#db4a01" stop-opacity="0.4743" />
      <stop offset="0.37401" stop-color="#db4a01" stop-opacity="0.40082" />
      <stop offset="0.60777" stop-color="#db4a01" stop-opacity="0.27959" />
      <stop offset="0.8574" stop-color="#db4a01" stop-opacity="0.11179" />
      <stop offset="1" stop-color="#db4a01" stop-opacity="0" />
    </radialGradient>
  </defs>

  <g>
    <path class="body"
      d="M116.53323,52.90981c.89341-3.88217-5.71161-.29778-7.6687-.904-4.30763-1.60607-12.4975,1.638-15.39051-.89347-1.93579-6.89221,19.02806-6.76459,16.17758-13.08247-1.51032-1.32952-2.893.74454-4.19065,1.25506-4.60541,1.08491-8.95563,4.85009-13.72062,4.43533-6.91352-7.23265,3.65885-4.14814,8.93434-11.01912-6.86788-3.114-7.62444,10.29769-15.17768-2.39348-1.02118-1.72272-3.75469-2.8395-1.84018-5.53048C106.8224,4.93006,63.714-14.2044,62.38446,14.90679c-5.42442.42548-11.34878-.47864-16.76255,1.31888-2.70163.75519-2.74415-.9998-2.87178-2.90365-2.11765-18.20673-25.1737-16.11221-28.473.24461C10.5332,29.64851,28.721,24.41553,20.87152,37.22146c-3.127,5.53082-14.20991-4.30764-15.35863-.86153,1.4465,5.29686,19.13446,5.13729,14.45458,14.47581C13.99,52.87793,7.087,46.31537.85424,48.22993c-1.31887.42541-.9998,1.90385.20209,2.27609,6.99862.75519,32.217,6.44552,11.99763,11.24244C11.2458,63.08863,5.13,63.078,5.949,66.07739c5.03089.72325,10.32768-3.05257,15.51813-3.13768a1.61933,1.61933,0,0,0,.43612.25532c1.8081,2.87171-11.39136,5.49889-7.9346,7.53037C24.83879,69.3427,21.063,58.079,30.92271,77.66019c1.80817,4.19066,4.49908,11.19986,1.73371,15.48626C30.21011,97.018,36.294,95.75233,38.14465,94.827c3.09516,1.76558,6.754-1.94644,2.82926-3.69078-.64886-.48922-1.92515-1.43586-1.99961-2.57393-2.18089-2.54757-2.73536-7.59584-.80836-9.73212,1.37205.39353,1.053,1.71247,1.38269,2.72285-.75512,4.531,3.76525,7.96655,3.83964,12.47628,1.053,2.58458,2.223,1.0636,3.37172.09568.62749-.01065,1.25506-.02122,1.88255-.02122v-.0213c2.40379,4.47785,6.956-.04252,2.23364-1.22318-3.78648-3.27591-4.47785-8.64721-5.14794-13.25264,1.404-4.531,9.328-1.49973,13.11442-2.11659,3.06322-.04258,6.3817-1.17,9.22154,1.08485-.29783,6.6689-1.79752,11.91252-6.76459,17.34759C74.63549,99.33033,70.682,75.40608,76.39229,76.83c1.83344,1.54817-1.83105,11.41986-2.58454,13.64679a10.37682,10.37682,0,0,1-2.37252,3.382c-.51477.08219-1.24389,2.03484.00911,2.2287,5.99166.70464,7.10749-5.00479,9.71089-9.21585,4.29461-7.74668,6.0231-16.11709,10.04264-23.666,2.99941.88282,6.052,1.43592,9.10456,2.0209,1.4465.234,4.61612,2.41443,4.66929-.17015-3.49934-2.26551-8.67915-2.191-12.01886-5.15858C90.92132,52.70772,112.2043,58.0471,116.53323,52.90981ZM25.36,20.59712c-10.466-5.86048.31907-20.0598,9.1896-12.08267C41.43125,14.21542,32.99678,25.88333,25.36,20.59712Zm43.26786-7.06237c-.62749-11.47647,15.4331-9.73212,15.77346-.24467.18082,9.30664-16.04992,10.20011-15.77344.24467Z" />
    <g>
      <path class="eye"
        d="M50.9436,42.8489c-1.44609-1.871-9.20135-1.63914-9.74417.725-8.16543,7.33393,7.71784,17.65293,11.86394,7.87661l.00013.00006C55.60608,47.78039,53.84277,45.17426,50.9436,42.8489Z" />
      <path class="eye"
        d="M73.228,43.92887c-6.2979-9.96958-17.95733,6.92148-6.52587,10.30308C72.14526,56.40242,79.12876,47.56071,73.228,43.92887Z" />
    </g>
  </g>
  <ellipse class="glow" cx="56.19151" cy="42.7785" rx="39.30061" ry="29.64006" />
  <path class="text"
    d="M9.54859,118.90658l1.18408-1.85547a8.876,8.876,0,0,0,1.4878.71972,4.01538,4.01538,0,0,0,1.36035.24024q.89576,0,.896-.48047a.5496.5496,0,0,0-.32813-.46387,4.79965,4.79965,0,0,0-.84033-.36816q-.512-.17579-1.08789-.39942a5.80071,5.80071,0,0,1-1.08789-.56054,2.81447,2.81447,0,0,1-.83985-.84766,2.29494,2.29494,0,0,1-.32812-1.26367,2.39344,2.39344,0,0,1,.7041-1.75195,3.44138,3.44138,0,0,1,1.936-.91993v-2.09668h1.792v2.06446a4.20729,4.20729,0,0,1,1.44775.48828,5.00731,5.00731,0,0,1,1.12793.87109l-1.34375,1.56836a5.65116,5.65116,0,0,0-1.07227-.57617,3.03722,3.03722,0,0,0-1.104-.19141q-.86352,0-.86377.51172,0,.22413.32813.3916a5.808,5.808,0,0,0,.83984.33594q.512.16846,1.08789.39258a5.84022,5.84022,0,0,1,1.08789.55957,2.9221,2.9221,0,0,1,.84033.832,2.193,2.193,0,0,1,.32813,1.23242,2.55125,2.55125,0,0,1-.68018,1.752,3.49415,3.49415,0,0,1-2.02392,1.01562v2.416h-1.792v-2.33594a6.91963,6.91963,0,0,1-1.59228-.416A4.78741,4.78741,0,0,1,9.54859,118.90658Z" />
  <g class="text">
    <path
      d="M28.87623,123.25911v-10.8164h2.24023l.1919.73633h.064a3.889,3.889,0,0,1,1.04785-.67188,2.93855,2.93855,0,0,1,1.1919-.25683,2.80986,2.80986,0,0,1,1.68017.5039,3.3,3.3,0,0,1,1.0962,1.416,5.40457,5.40457,0,0,1,.39209,2.14453,5.16266,5.16266,0,0,1-.48829,2.34375,3.68122,3.68122,0,0,1-1.26416,1.47265,2.98672,2.98672,0,0,1-1.65576.50391,2.32214,2.32214,0,0,1-.96826-.208,2.8595,2.8595,0,0,1-.83984-.59277h-.064l.12793,1.2168v2.208Zm3.83984-4.86425a1.10707,1.10707,0,0,0,.88037-.44825,3.62076,3.62076,0,0,0,.07178-3.02343,1.00519,1.00519,0,0,0-.88769-.43262,1.37708,1.37708,0,0,0-.59229.12793,1.85254,1.85254,0,0,0-.56006.44824v2.94434a1.618,1.618,0,0,0,.53614.2959A1.835,1.835,0,0,0,32.71607,118.39486Z" />
    <path
      d="M42.7317,120.63509a5.13512,5.13512,0,0,1-2.27979-.49609,3.87336,3.87336,0,0,1-1.60791-1.43262,4.14465,4.14465,0,0,1-.59228-2.26367,3.99562,3.99562,0,0,1,2.16015-3.68848,4.31187,4.31187,0,0,1,2.03223-.5039,3.97432,3.97432,0,0,1,2.11182.5205,3.29,3.29,0,0,1,1.272,1.39942,4.44134,4.44134,0,0,1,.42383,1.95215,5.58237,5.58237,0,0,1-.04.68066q-.03956.32813-.07178.47168H41.00367a1.505,1.505,0,0,0,.7041.97559,2.80909,2.80909,0,0,0,1.40821.30468,3.66182,3.66182,0,0,0,.936-.12011,6.24236,6.24236,0,0,0,.98389-.36036l.896,1.63184a6.42153,6.42153,0,0,1-3.20019.92871Zm-.1919-6.30469a1.451,1.451,0,0,0-1.52,1.15235h2.8003A1.18889,1.18889,0,0,0,42.5398,114.3304Z" />
    <path
      d="M51.69215,120.63509a6.413,6.413,0,0,1-2.08008-.36035,8.27624,8.27624,0,0,1-1.82422-.85645l1.15234-1.69531a6.34312,6.34312,0,0,0,1.56006.67188,5.87814,5.87814,0,0,0,1.57569.22363,1.57891,1.57891,0,0,0,.76025-.13574.39733.39733,0,0,0,.23193-.34375q0-.28858-.376-.40821-.37647-.1201-1.38428-.32812a5.08673,5.08673,0,0,1-2.32764-1,2.04357,2.04357,0,0,1-.68017-1.55957,2.18,2.18,0,0,1,1.03174-1.88867,4.85758,4.85758,0,0,1,2.77636-.7041,5.34662,5.34662,0,0,1,2.02393.36035,9.97764,9.97764,0,0,1,1.52783.75976l-1.21582,1.63184a5.32371,5.32371,0,0,0-1.2959-.55176,4.92954,4.92954,0,0,0-1.29638-.18359,1.382,1.382,0,0,0-.60792.11133.36039.36039,0,0,0-.22412.33691q0,.25488.36817.35156.36768.09667,1.2959.32031a8.13194,8.13194,0,0,1,1.88037.624,1.982,1.982,0,0,1,1.22363,1.96777,2.27467,2.27467,0,0,1-1.04785,1.8877A5.11312,5.11312,0,0,1,51.69215,120.63509Z" />
    <path
      d="M62.82838,120.63509a4.21587,4.21587,0,0,1-2.09619-.44824A2.62533,2.62533,0,0,1,59.596,118.931a4.68169,4.68169,0,0,1-.35206-1.87988v-2.46485H57.324v-2.04785l2.04834-.0957.35157-2.40039h2.27246v2.40039h3.168v2.14355h-3.168v2.416a1.444,1.444,0,0,0,.3916,1.168,1.79992,1.79992,0,0,0,1.16015.32031,3.89874,3.89874,0,0,0,.77637-.07227,4.93115,4.93115,0,0,0,.67969-.18359l.48047,1.98438q-.52881.14355-1.18457.27929A7.26279,7.26279,0,0,1,62.82838,120.63509Z" />
    <path
      d="M76.39527,120.63509A5.13872,5.13872,0,0,1,74.115,120.139a3.878,3.878,0,0,1-1.60742-1.43262,4.14868,4.14868,0,0,1-.5918-2.26367,3.84324,3.84324,0,0,1,.65527-2.26367,4.24868,4.24868,0,0,1,1.72852-1.43262,5.42486,5.42486,0,0,1,2.30371-.49609,5.06452,5.06452,0,0,1,1.73633.28808,3.59381,3.59381,0,0,1,1.28808.76856l-1.248,1.69531a3.21385,3.21385,0,0,0-.83985-.42383,2.64318,2.64318,0,0,0-.77636-.12012,2.04433,2.04433,0,0,0-1.46387.53614,1.89531,1.89531,0,0,0-.56836,1.44824A1.928,1.928,0,0,0,75.283,117.891a1.90875,1.90875,0,0,0,1.38476.53613,2.73074,2.73074,0,0,0,1.08008-.208,6.01232,6.01232,0,0,0,.8877-.46485l1.08789,1.72852a4.68657,4.68657,0,0,1-1.63184.87988A5.84,5.84,0,0,1,76.39527,120.63509Z" />
    <path
      d="M86.77906,120.63509a2.95546,2.95546,0,0,1-2.40723-.96875,3.79769,3.79769,0,0,1-.80859-2.51953v-5.69629H81.16383V109.307h5.15234v7.93554a1.024,1.024,0,0,0,.39063.93653,1.49777,1.49777,0,0,0,.80859.248,3.64053,3.64053,0,0,0,1.15234-.22461l.5918,2.01661c-.42578.12793-.81641.22851-1.168.30371A6.48762,6.48762,0,0,1,86.77906,120.63509Z" />
    <path
      d="M94.34742,120.44271v-5.85645h-3.04v-2.14355h5.792v8Zm1.28027-9.08789a1.82992,1.82992,0,0,1-1.26367-.44043,1.47364,1.47364,0,0,1-.49609-1.16016,1.525,1.525,0,0,1,.49609-1.17578,1.97879,1.97879,0,0,1,2.52735,0,1.525,1.525,0,0,1,.49609,1.17578,1.47364,1.47364,0,0,1-.49609,1.16016A1.82993,1.82993,0,0,1,95.62769,111.35482Z" />
  </g>
  <path class="text cursor" d="M104.6356,122.90658v-16h2.43164v16Z" />
</svg>